<svg width="273" height="69" viewBox="0 0 273 69" fill="none" xmlns="http://www.w3.org/2000/svg">
<path d="M97.9531 47.6719H94.75L92.0938 38.9219H82.6406L79.9844 47.6719H76.7812L85.7266 19.625H89.0469L97.9531 47.6719ZM91.2734 36.1484L87.4062 23.2188L83.4609 36.1484H91.2734ZM104.555 47.6719H101.547V19.625H104.555V47.6719ZM125.727 37.5547C125.727 39.2214 125.518 40.7057 125.102 42.0078C124.711 43.3099 124.203 44.3776 123.578 45.2109C122.927 46.0964 122.107 46.7734 121.117 47.2422C120.154 47.7109 119.164 47.9453 118.148 47.9453C116.846 47.9453 115.688 47.6068 114.672 46.9297C113.682 46.2266 113.044 45.5365 112.758 44.8594V54.5469H109.867V27.9844H112.758V30.6406C114.086 28.5573 115.818 27.5156 117.953 27.5156C119.203 27.5156 120.323 27.8021 121.312 28.375C122.328 28.9479 123.161 29.7031 123.812 30.6406C124.411 31.5521 124.88 32.6068 125.219 33.8047C125.557 35.0026 125.727 36.2526 125.727 37.5547ZM122.68 37.75C122.68 36.6823 122.549 35.6797 122.289 34.7422C122.055 33.7786 121.703 32.9453 121.234 32.2422C120.792 31.5391 120.258 30.9922 119.633 30.6016C119.008 30.1849 118.37 29.9766 117.719 29.9766C117.094 29.9766 116.469 30.1979 115.844 30.6406C115.219 31.0573 114.685 31.6042 114.242 32.2812C113.799 32.9844 113.448 33.8047 113.188 34.7422C112.927 35.6797 112.797 36.6823 112.797 37.75C112.797 38.8177 112.927 39.8203 113.188 40.7578C113.448 41.6693 113.799 42.4896 114.242 43.2188C114.685 43.9479 115.219 44.5208 115.844 44.9375C116.469 45.3281 117.094 45.5234 117.719 45.5234C118.37 45.5234 119.008 45.3281 119.633 44.9375C120.284 44.5469 120.818 43.987 121.234 43.2578C121.703 42.5547 122.055 41.7344 122.289 40.7969C122.549 39.8333 122.68 38.8177 122.68 37.75ZM144.711 47.6719H141.781V34.8984C141.781 33.5182 141.443 32.3333 140.766 31.3438C140.219 30.5365 139.294 30.1328 137.992 30.1328C136.846 30.1328 135.831 30.6536 134.945 31.6953C134.086 32.7109 133.448 34.1953 133.031 36.1484C132.927 36.6172 132.849 37.099 132.797 37.5938C132.771 38.0625 132.758 38.5443 132.758 39.0391V47.6719H129.867V19.625H132.758V31.3438C133.096 30.5365 133.682 29.7422 134.516 28.9609C135.688 27.9974 136.938 27.5156 138.266 27.5156C140.271 27.5156 141.82 28.0625 142.914 29.1562C144.112 30.3281 144.711 32.0859 144.711 34.4297V47.6719ZM163.656 47.6719H160.688V45.25C160.271 45.8229 159.542 46.3958 158.5 46.9688C157.875 47.3333 157.172 47.6198 156.391 47.8281C155.635 48.0104 154.75 48.1016 153.734 48.1016C153.214 48.1016 152.628 47.9844 151.977 47.75C151.352 47.5156 150.818 47.1771 150.375 46.7344C149.88 46.2917 149.503 45.7578 149.242 45.1328C148.982 44.4818 148.852 43.7526 148.852 42.9453C148.852 41.487 149.242 40.224 150.023 39.1562C150.805 38.0885 151.755 37.3464 152.875 36.9297C153.63 36.6693 154.438 36.474 155.297 36.3438C156.156 36.2135 156.911 36.1484 157.562 36.1484H160.688V34.3125C160.688 33.974 160.635 33.5573 160.531 33.0625C160.453 32.5417 160.271 32.0469 159.984 31.5781C159.672 31.1354 159.216 30.7578 158.617 30.4453C158.044 30.1068 157.354 29.9375 156.547 29.9375C155.505 29.9375 154.594 30.237 153.812 30.8359C153.057 31.4089 152.68 32.1771 152.68 33.1406H149.32C149.32 32.4375 149.464 31.7604 149.75 31.1094C150.036 30.4583 150.466 29.8724 151.039 29.3516C151.638 28.8047 152.419 28.362 153.383 28.0234C154.346 27.6849 155.401 27.5156 156.547 27.5156C158.891 27.5156 160.661 28.1536 161.859 29.4297C163.057 30.7057 163.656 32.2812 163.656 34.1562V47.6719ZM160.688 40.25V38.375C160.115 38.375 159.451 38.388 158.695 38.4141C157.94 38.4141 157.016 38.5052 155.922 38.6875C154.932 38.8698 154.047 39.2474 153.266 39.8203C152.354 40.5755 151.898 41.487 151.898 42.5547C151.898 43.6484 152.198 44.4427 152.797 44.9375C153.396 45.4323 154.138 45.6797 155.023 45.6797C155.362 45.6797 155.831 45.6016 156.43 45.4453C157.029 45.263 157.562 45.0286 158.031 44.7422C159.021 44.0911 159.776 43.2969 160.297 42.3594C160.557 41.8385 160.688 41.1354 160.688 40.25Z" fill="#E2F1F4"/>
<path d="M187.641 27.3203H184.398C184.398 26.3568 184.229 25.5365 183.891 24.8594C183.578 24.1562 183.174 23.5833 182.68 23.1406C182.159 22.724 181.573 22.3984 180.922 22.1641C180.297 21.9297 179.659 21.7995 179.008 21.7734C177.914 21.7734 176.872 22.0078 175.883 22.4766C174.893 22.9453 174.008 23.6875 173.227 24.7031C172.471 25.6927 171.872 26.9688 171.43 28.5312C171.013 30.0677 170.805 31.6042 170.805 33.1406C170.805 34.1302 170.922 35.3281 171.156 36.7344C171.391 38.1146 171.846 39.4818 172.523 40.8359C173.122 42.0859 174.021 43.1667 175.219 44.0781C176.443 44.9635 177.992 45.4062 179.867 45.4062C180.857 45.4062 181.807 45.2891 182.719 45.0547C183.63 44.8203 184.177 44.638 184.359 44.5078V35.5234H178.227V32.7109H187.406V46.1094C186.182 46.7604 184.919 47.2552 183.617 47.5938C182.341 47.9323 180.857 48.1016 179.164 48.1016C177.133 48.1016 175.388 47.6589 173.93 46.7734C172.497 45.888 171.312 44.7422 170.375 43.3359C169.411 41.9036 168.721 40.3151 168.305 38.5703C167.888 36.7995 167.68 34.9896 167.68 33.1406C167.68 31.2917 167.901 29.5339 168.344 27.8672C168.786 26.1745 169.49 24.6901 170.453 23.4141C171.365 22.1641 172.536 21.1354 173.969 20.3281C175.401 19.5208 177.081 19.1172 179.008 19.1172C180.18 19.1172 181.286 19.3125 182.328 19.7031C183.37 20.0938 184.268 20.6406 185.023 21.3438C185.805 22.0729 186.43 22.9323 186.898 23.9219C187.393 24.8854 187.641 26.0182 187.641 27.3203ZM206.469 47.6719H203.5V45.25C203.083 45.8229 202.354 46.3958 201.312 46.9688C200.688 47.3333 199.984 47.6198 199.203 47.8281C198.448 48.0104 197.562 48.1016 196.547 48.1016C196.026 48.1016 195.44 47.9844 194.789 47.75C194.164 47.5156 193.63 47.1771 193.188 46.7344C192.693 46.2917 192.315 45.7578 192.055 45.1328C191.794 44.4818 191.664 43.7526 191.664 42.9453C191.664 41.487 192.055 40.224 192.836 39.1562C193.617 38.0885 194.568 37.3464 195.688 36.9297C196.443 36.6693 197.25 36.474 198.109 36.3438C198.969 36.2135 199.724 36.1484 200.375 36.1484H203.5V34.3125C203.5 33.974 203.448 33.5573 203.344 33.0625C203.266 32.5417 203.083 32.0469 202.797 31.5781C202.484 31.1354 202.029 30.7578 201.43 30.4453C200.857 30.1068 200.167 29.9375 199.359 29.9375C198.318 29.9375 197.406 30.237 196.625 30.8359C195.87 31.4089 195.492 32.1771 195.492 33.1406H192.133C192.133 32.4375 192.276 31.7604 192.562 31.1094C192.849 30.4583 193.279 29.8724 193.852 29.3516C194.451 28.8047 195.232 28.362 196.195 28.0234C197.159 27.6849 198.214 27.5156 199.359 27.5156C201.703 27.5156 203.474 28.1536 204.672 29.4297C205.87 30.7057 206.469 32.2812 206.469 34.1562V47.6719ZM203.5 40.25V38.375C202.927 38.375 202.263 38.388 201.508 38.4141C200.753 38.4141 199.828 38.5052 198.734 38.6875C197.745 38.8698 196.859 39.2474 196.078 39.8203C195.167 40.5755 194.711 41.487 194.711 42.5547C194.711 43.6484 195.01 44.4427 195.609 44.9375C196.208 45.4323 196.951 45.6797 197.836 45.6797C198.174 45.6797 198.643 45.6016 199.242 45.4453C199.841 45.263 200.375 45.0286 200.844 44.7422C201.833 44.0911 202.589 43.2969 203.109 42.3594C203.37 41.8385 203.5 41.1354 203.5 40.25ZM235.062 47.6719H232.211V36.3828C232.211 35.6797 232.172 34.9245 232.094 34.1172C232.042 33.2839 231.924 32.6198 231.742 32.125C231.482 31.526 231.13 31.0833 230.688 30.7969C230.245 30.5104 229.724 30.3672 229.125 30.3672C228.057 30.3672 227.133 30.901 226.352 31.9688C225.596 33.0104 225.102 34.4427 224.867 36.2656C224.763 36.8125 224.698 37.3203 224.672 37.7891C224.646 38.2578 224.633 38.7266 224.633 39.1953V47.6719H221.938V36.3828C221.938 35.6797 221.898 34.9375 221.82 34.1562C221.768 33.375 221.625 32.6979 221.391 32.125C221.156 31.526 220.818 31.0833 220.375 30.7969C219.932 30.5104 219.385 30.3672 218.734 30.3672C217.979 30.3672 217.315 30.6146 216.742 31.1094C216.195 31.6042 215.74 32.3333 215.375 33.2969C215.036 34.2083 214.789 35.1458 214.633 36.1094C214.477 37.0469 214.385 38.0755 214.359 39.1953V47.6719H211.547V27.9844H214.359V31.1094C214.62 30.3802 215.062 29.6901 215.688 29.0391C216.625 28.0234 217.758 27.5156 219.086 27.5156C220.622 27.4896 221.859 27.9062 222.797 28.7656C223.474 29.4167 223.969 30.237 224.281 31.2266C224.516 30.5755 224.945 29.9115 225.57 29.2344C226.586 28.0885 227.888 27.5156 229.477 27.5156C231.091 27.5156 232.419 28.0885 233.461 29.2344C234.529 30.3542 235.062 32.151 235.062 34.625V47.6719ZM242.328 36.3438H251.703C251.703 34.4688 251.443 32.9844 250.922 31.8906C250.635 31.3177 250.193 30.849 249.594 30.4844C249.021 30.1198 248.357 29.9375 247.602 29.9375C246.091 29.9375 244.828 30.5885 243.812 31.8906C242.953 33.0104 242.458 34.4948 242.328 36.3438ZM242.367 38.7656C242.367 38.9219 242.38 39.0651 242.406 39.1953C242.484 39.7943 242.628 40.4062 242.836 41.0312C243.07 41.7344 243.422 42.4245 243.891 43.1016C244.385 43.7786 245.049 44.3646 245.883 44.8594C246.169 45.0417 246.599 45.224 247.172 45.4062C247.771 45.5625 248.461 45.6406 249.242 45.6406C249.841 45.6406 250.57 45.5495 251.43 45.3672C252.315 45.1849 253.24 44.8203 254.203 44.2734V46.6953C253.161 47.3203 252.055 47.737 250.883 47.9453C249.711 48.1536 248.526 48.1927 247.328 48.0625C246.286 47.9583 245.258 47.6589 244.242 47.1641C243.253 46.6693 242.458 46.0703 241.859 45.3672C241.078 44.5078 240.427 43.4141 239.906 42.0859C239.411 40.7318 239.164 39.1693 239.164 37.3984C239.164 35.9401 239.346 34.612 239.711 33.4141C240.102 32.2161 240.648 31.1745 241.352 30.2891C242.055 29.4557 242.927 28.7917 243.969 28.2969C245.01 27.776 246.221 27.5156 247.602 27.5156C248.721 27.5156 249.789 27.763 250.805 28.2578C251.82 28.7266 252.602 29.3385 253.148 30.0938C254.216 31.5521 254.75 33.7396 254.75 36.6562V38.7656H242.367ZM270.922 42.5156C270.922 43.3229 270.766 44.0911 270.453 44.8203C270.167 45.5234 269.763 46.0964 269.242 46.5391C268.617 47.0599 267.784 47.4505 266.742 47.7109C265.701 47.9714 264.555 48.1016 263.305 48.1016C261.846 48.1016 260.062 47.763 257.953 47.0859V44.0391C258.448 44.3516 259.255 44.7031 260.375 45.0938C261.495 45.4583 262.471 45.6406 263.305 45.6406C264.711 45.6406 265.766 45.4453 266.469 45.0547C267.458 44.4557 267.953 43.6745 267.953 42.7109C267.953 42.0599 267.771 41.513 267.406 41.0703C267.068 40.6016 266.612 40.2109 266.039 39.8984C265.44 39.5859 264.672 39.2474 263.734 38.8828C262.797 38.4922 261.885 38.0755 261 37.6328C260.271 37.2422 259.594 36.6693 258.969 35.9141C258.344 35.1589 258.031 34.1562 258.031 32.9062C258.031 31.1875 258.643 29.8594 259.867 28.9219C261.091 27.9844 262.706 27.5156 264.711 27.5156C266.352 27.5156 268.044 27.8021 269.789 28.375V31.3047C269.32 31.0443 268.578 30.7448 267.562 30.4062C266.573 30.0677 265.518 29.8984 264.398 29.8984C263.487 29.8984 262.68 30.1328 261.977 30.6016C261.273 31.0703 260.922 31.7083 260.922 32.5156C260.922 33.0885 261.026 33.5703 261.234 33.9609C261.443 34.3255 261.833 34.6901 262.406 35.0547C262.875 35.3932 263.669 35.7839 264.789 36.2266C265.909 36.6432 266.859 37.0599 267.641 37.4766C268.5 37.9193 269.255 38.5573 269.906 39.3906C270.583 40.224 270.922 41.2656 270.922 42.5156Z" fill="#424572"/>
<circle cx="34.5" cy="34.5" r="34.5" fill="#424572"/>
<path d="M15.1609 13.9778C22.9307 16.7753 31.1561 21.8416 38.3701 28.7383C46.7328 36.7332 50.3667 44.9882 52.1693 52.7278C52.8181 44.7411 50.2098 35.5166 41.506 27.1956C33.6203 19.6566 23.88 15.0313 15.1609 13.9778Z" fill="#E2F1F4"/>
<path fill-rule="evenodd" clip-rule="evenodd" d="M61.0463 23.197C62.6955 30.5278 49.8415 38.8043 32.336 41.6832C23.1757 43.1897 14.5568 42.9197 8.18481 41.2694C13.7293 41.7247 20.3817 41.4381 27.3901 40.2855C44.8955 37.4066 57.9936 30.215 56.6455 24.2226C55.4211 18.7804 45.7055 14.6491 30.9888 19.304C30.8128 19.1868 30.6218 19.0738 30.4179 18.9677C30.399 18.9579 30.3801 18.9482 30.3612 18.9386C46.1516 11.3292 59.4562 16.1294 61.0463 23.197Z" fill="#3F9CD9"/>
<path d="M26.0805 22.7983C13.1027 31.8352 11.865 47.3924 13.3702 54.3988C15.377 42.2448 17.8857 35.0953 26.0805 28.8038C26.0805 28.8038 38.958 33.6654 49.6614 54.3988C45.6476 33.8084 26.7494 22.3325 26.0805 22.7983Z" fill="#9CA2F4"/>
</svg>
